# xmcd CD database file
#
# Track frame offsets:
#	182
#	11535
#	23955
#	36745
#	48305
#	60330
#	74127
#	88165
#	102480
#	117905
#	129860
#	144555
#	157757
#	171680
#	185017
#	199672
#	213787
#	228407
#	241350
#	255742
#	270405
#	284725
#	297927
#	311587
#
# Disc length: 4323 seconds
#
# Revision: 1
# Processed by: cddbd v1.5.1PL0 Copyright (c) Steve Scherf et al.
# Submitted via: CDex 1.51
#
DISCID=6d10e118
DTITLE=Louis Armstrong - The Hot Fives
DYEAR=1900
DGENRE=Jazz
TTITLE0=My Heart
TTITLE1=I'm in the barrel
TTITLE2=Gut Bucket Blues
TTITLE3=Come Back, Sweet Papa
TTITLE4=Georgia Grind
TTITLE5=Heebie Jeebies
TTITLE6=Cornet Chop Suey
TTITLE7=Oriental Strut
TTITLE8=You're Next
TTITLE9=Muskrat Ramble
TTITLE10=Dont forget to mess Around
TTITLE11=Im gonna Gitcha
TTITLE12=Droppin Shucks
TTITLE13=Who'Sit
TTITLE14=King Of The Zulus
TTITLE15=Big Fat Ma And Skinny Pa
TTITLE16=Lonesome Blues
TTITLE17=Sweet Little Papa
TTITLE18=Jazz Lips
TTITLE19=Skid-Dat-De-Dat
TTITLE20=Big Butter and Egg Man
TTITLE21=Sunset Cafe Stomp
TTITLE22=You Made Me Love You
TTITLE23=Irish Black Bottom
EXTD=
EXTT0=
EXTT1=
EXTT2=
EXTT3=
EXTT4=
EXTT5=
EXTT6=
EXTT7=
EXTT8=
EXTT9=
EXTT10=
EXTT11=
EXTT12=
EXTT13=
EXTT14=
EXTT15=
EXTT16=
EXTT17=
EXTT18=
EXTT19=
EXTT20=
EXTT21=
EXTT22=
EXTT23=
PLAYORDER=
